<mxfile host="app.diagrams.net" modified="2020-10-14T14:54:53.071Z" agent="5.0 (Windows NT 10.0; Win64; x64) AppleWebKit/537.36 (KHTML, like Gecko) Chrome/86.0.4240.75 Safari/537.36" etag="p15KN_llBCtg2Ntsv03o" version="13.6.6" type="github" pages="4">
  <diagram id="k15Hz_TtltX3V6zlLbDC" name="Use case">
    <mxGraphModel dx="2062" dy="1122" grid="1" gridSize="10" guides="1" tooltips="1" connect="1" arrows="1" fold="1" page="1" pageScale="1" pageWidth="827" pageHeight="1169" math="0" shadow="0">
      <root>
        <mxCell id="0" />
        <mxCell id="1" parent="0" />
        <mxCell id="UKZTkGH4Blwmy7zalxRk-1" value="Trainer" style="shape=umlActor;verticalLabelPosition=bottom;verticalAlign=top;html=1;" parent="1" vertex="1">
          <mxGeometry x="150" y="340" width="30" height="60" as="geometry" />
        </mxCell>
        <mxCell id="UKZTkGH4Blwmy7zalxRk-2" value="Create ticket" style="ellipse;whiteSpace=wrap;html=1;" parent="1" vertex="1">
          <mxGeometry x="454" y="50" width="120" height="80" as="geometry" />
        </mxCell>
        <mxCell id="UKZTkGH4Blwmy7zalxRk-3" value="Update ticket" style="ellipse;whiteSpace=wrap;html=1;" parent="1" vertex="1">
          <mxGeometry x="440" y="150" width="120" height="80" as="geometry" />
        </mxCell>
        <mxCell id="UKZTkGH4Blwmy7zalxRk-4" value="Delete ticket" style="ellipse;whiteSpace=wrap;html=1;" parent="1" vertex="1">
          <mxGeometry x="480" y="250" width="120" height="80" as="geometry" />
        </mxCell>
        <mxCell id="UKZTkGH4Blwmy7zalxRk-5" value="Get open ticket" style="ellipse;whiteSpace=wrap;html=1;" parent="1" vertex="1">
          <mxGeometry x="470" y="360" width="120" height="80" as="geometry" />
        </mxCell>
        <mxCell id="UKZTkGH4Blwmy7zalxRk-6" value="Get completed ticket" style="ellipse;whiteSpace=wrap;html=1;" parent="1" vertex="1">
          <mxGeometry x="454" y="460" width="120" height="80" as="geometry" />
        </mxCell>
        <mxCell id="UKZTkGH4Blwmy7zalxRk-7" value="" style="endArrow=none;dashed=1;html=1;dashPattern=1 3;strokeWidth=2;" parent="1" target="UKZTkGH4Blwmy7zalxRk-4" edge="1">
          <mxGeometry width="50" height="50" relative="1" as="geometry">
            <mxPoint x="180" y="360" as="sourcePoint" />
            <mxPoint x="470" y="350" as="targetPoint" />
          </mxGeometry>
        </mxCell>
        <mxCell id="UKZTkGH4Blwmy7zalxRk-8" value="" style="endArrow=none;dashed=1;html=1;dashPattern=1 3;strokeWidth=2;" parent="1" target="UKZTkGH4Blwmy7zalxRk-3" edge="1">
          <mxGeometry width="50" height="50" relative="1" as="geometry">
            <mxPoint x="180" y="360" as="sourcePoint" />
            <mxPoint x="230" y="310" as="targetPoint" />
          </mxGeometry>
        </mxCell>
        <mxCell id="UKZTkGH4Blwmy7zalxRk-9" value="" style="endArrow=none;dashed=1;html=1;dashPattern=1 3;strokeWidth=2;" parent="1" target="UKZTkGH4Blwmy7zalxRk-6" edge="1">
          <mxGeometry width="50" height="50" relative="1" as="geometry">
            <mxPoint x="180" y="360" as="sourcePoint" />
            <mxPoint x="350" y="460" as="targetPoint" />
          </mxGeometry>
        </mxCell>
        <mxCell id="UKZTkGH4Blwmy7zalxRk-10" value="" style="endArrow=none;dashed=1;html=1;dashPattern=1 3;strokeWidth=2;" parent="1" target="UKZTkGH4Blwmy7zalxRk-5" edge="1">
          <mxGeometry width="50" height="50" relative="1" as="geometry">
            <mxPoint x="190" y="360" as="sourcePoint" />
            <mxPoint x="460" y="425" as="targetPoint" />
          </mxGeometry>
        </mxCell>
        <mxCell id="UKZTkGH4Blwmy7zalxRk-11" value="Trainee" style="shape=umlActor;verticalLabelPosition=bottom;verticalAlign=top;html=1;" parent="1" vertex="1">
          <mxGeometry x="810" y="240" width="30" height="60" as="geometry" />
        </mxCell>
        <mxCell id="UKZTkGH4Blwmy7zalxRk-12" value="" style="endArrow=none;dashed=1;html=1;dashPattern=1 3;strokeWidth=2;exitX=1.022;exitY=0.304;exitDx=0;exitDy=0;entryX=0;entryY=0.3333333333333333;entryDx=0;entryDy=0;entryPerimeter=0;exitPerimeter=0;" parent="1" source="UKZTkGH4Blwmy7zalxRk-4" target="UKZTkGH4Blwmy7zalxRk-11" edge="1">
          <mxGeometry width="50" height="50" relative="1" as="geometry">
            <mxPoint x="660" y="350" as="sourcePoint" />
            <mxPoint x="790" y="470" as="targetPoint" />
          </mxGeometry>
        </mxCell>
        <mxCell id="UKZTkGH4Blwmy7zalxRk-13" value="" style="endArrow=none;dashed=1;html=1;dashPattern=1 3;strokeWidth=2;entryX=0;entryY=0.3333333333333333;entryDx=0;entryDy=0;entryPerimeter=0;" parent="1" source="UKZTkGH4Blwmy7zalxRk-6" target="UKZTkGH4Blwmy7zalxRk-11" edge="1">
          <mxGeometry width="50" height="50" relative="1" as="geometry">
            <mxPoint x="720" y="540" as="sourcePoint" />
            <mxPoint x="770" y="490" as="targetPoint" />
          </mxGeometry>
        </mxCell>
        <mxCell id="UKZTkGH4Blwmy7zalxRk-14" value="" style="endArrow=none;dashed=1;html=1;dashPattern=1 3;strokeWidth=2;entryX=0;entryY=0.3333333333333333;entryDx=0;entryDy=0;entryPerimeter=0;" parent="1" source="UKZTkGH4Blwmy7zalxRk-5" target="UKZTkGH4Blwmy7zalxRk-11" edge="1">
          <mxGeometry width="50" height="50" relative="1" as="geometry">
            <mxPoint x="730" y="540" as="sourcePoint" />
            <mxPoint x="780" y="490" as="targetPoint" />
          </mxGeometry>
        </mxCell>
        <mxCell id="UKZTkGH4Blwmy7zalxRk-15" value="" style="endArrow=none;dashed=1;html=1;dashPattern=1 3;strokeWidth=2;" parent="1" source="UKZTkGH4Blwmy7zalxRk-2" edge="1">
          <mxGeometry width="50" height="50" relative="1" as="geometry">
            <mxPoint x="700" y="220" as="sourcePoint" />
            <mxPoint x="810" y="260" as="targetPoint" />
          </mxGeometry>
        </mxCell>
        <mxCell id="UKZTkGH4Blwmy7zalxRk-16" value="" style="endArrow=none;dashed=1;html=1;dashPattern=1 3;strokeWidth=2;exitX=0.956;exitY=0.721;exitDx=0;exitDy=0;exitPerimeter=0;" parent="1" source="UKZTkGH4Blwmy7zalxRk-3" edge="1">
          <mxGeometry width="50" height="50" relative="1" as="geometry">
            <mxPoint x="760" y="315" as="sourcePoint" />
            <mxPoint x="810" y="265" as="targetPoint" />
          </mxGeometry>
        </mxCell>
        <mxCell id="UKZTkGH4Blwmy7zalxRk-17" value="provide solution" style="ellipse;whiteSpace=wrap;html=1;" parent="1" vertex="1">
          <mxGeometry x="454" y="560" width="120" height="80" as="geometry" />
        </mxCell>
        <mxCell id="UKZTkGH4Blwmy7zalxRk-18" value="" style="endArrow=none;dashed=1;html=1;" parent="1" target="UKZTkGH4Blwmy7zalxRk-17" edge="1">
          <mxGeometry width="50" height="50" relative="1" as="geometry">
            <mxPoint x="180" y="360" as="sourcePoint" />
            <mxPoint x="230" y="310" as="targetPoint" />
          </mxGeometry>
        </mxCell>
        <mxCell id="UKZTkGH4Blwmy7zalxRk-19" value="" style="endArrow=none;dashed=1;html=1;dashPattern=1 3;strokeWidth=2;exitX=0.767;exitY=0.096;exitDx=0;exitDy=0;exitPerimeter=0;" parent="1" source="UKZTkGH4Blwmy7zalxRk-17" edge="1">
          <mxGeometry width="50" height="50" relative="1" as="geometry">
            <mxPoint x="780" y="350" as="sourcePoint" />
            <mxPoint x="830" y="300" as="targetPoint" />
          </mxGeometry>
        </mxCell>
      </root>
    </mxGraphModel>
  </diagram>
  <diagram name="Website design" id="VAYxxLX5RRvurcW6w2XS">
    <mxGraphModel dx="2889" dy="1122" grid="1" gridSize="10" guides="1" tooltips="1" connect="1" arrows="1" fold="1" page="1" pageScale="1" pageWidth="827" pageHeight="1169" math="0" shadow="0">
      <root>
        <mxCell id="dU9eeJgTwGEJfsgNo73O-0" />
        <mxCell id="dU9eeJgTwGEJfsgNo73O-1" parent="dU9eeJgTwGEJfsgNo73O-0" />
        <mxCell id="173Z28My_MUUdqq_JIqF-1" value="" style="group" parent="dU9eeJgTwGEJfsgNo73O-1" vertex="1" connectable="0">
          <mxGeometry x="380" y="370" width="320" height="320" as="geometry" />
        </mxCell>
        <mxCell id="VyQ7sG4PmXJxbMCQKmuq-17" value="" style="whiteSpace=wrap;html=1;aspect=fixed;" parent="173Z28My_MUUdqq_JIqF-1" vertex="1">
          <mxGeometry width="320" height="320" as="geometry" />
        </mxCell>
        <mxCell id="VyQ7sG4PmXJxbMCQKmuq-19" value="Create ticket&amp;nbsp;" style="rounded=1;whiteSpace=wrap;html=1;" parent="173Z28My_MUUdqq_JIqF-1" vertex="1">
          <mxGeometry x="24" y="50" width="106" height="20" as="geometry" />
        </mxCell>
        <mxCell id="VyQ7sG4PmXJxbMCQKmuq-20" value="Queue" style="text;html=1;strokeColor=none;fillColor=none;align=center;verticalAlign=middle;whiteSpace=wrap;rounded=0;" parent="173Z28My_MUUdqq_JIqF-1" vertex="1">
          <mxGeometry x="150" y="10" width="40" height="20" as="geometry" />
        </mxCell>
        <mxCell id="VyQ7sG4PmXJxbMCQKmuq-22" value="Open ticket&amp;nbsp;" style="rounded=1;whiteSpace=wrap;html=1;" parent="173Z28My_MUUdqq_JIqF-1" vertex="1">
          <mxGeometry x="50" y="95" width="100" height="20" as="geometry" />
        </mxCell>
        <mxCell id="VyQ7sG4PmXJxbMCQKmuq-23" value="Create ticket&amp;nbsp;" style="rounded=1;whiteSpace=wrap;html=1;" parent="173Z28My_MUUdqq_JIqF-1" vertex="1">
          <mxGeometry x="50" y="120" width="100" height="20" as="geometry" />
        </mxCell>
        <mxCell id="VyQ7sG4PmXJxbMCQKmuq-24" value="open ticket 3&amp;nbsp;" style="rounded=1;whiteSpace=wrap;html=1;" parent="173Z28My_MUUdqq_JIqF-1" vertex="1">
          <mxGeometry x="50" y="150" width="100" height="20" as="geometry" />
        </mxCell>
        <mxCell id="VyQ7sG4PmXJxbMCQKmuq-25" value="Create ticket&amp;nbsp;" style="rounded=1;whiteSpace=wrap;html=1;" parent="173Z28My_MUUdqq_JIqF-1" vertex="1">
          <mxGeometry x="50" y="180" width="100" height="20" as="geometry" />
        </mxCell>
        <mxCell id="VyQ7sG4PmXJxbMCQKmuq-26" value="Done" style="rounded=1;whiteSpace=wrap;html=1;" parent="173Z28My_MUUdqq_JIqF-1" vertex="1">
          <mxGeometry x="190" y="95" width="64" height="20" as="geometry" />
        </mxCell>
        <mxCell id="VyQ7sG4PmXJxbMCQKmuq-27" value="Done" style="rounded=1;whiteSpace=wrap;html=1;" parent="173Z28My_MUUdqq_JIqF-1" vertex="1">
          <mxGeometry x="190" y="120" width="64" height="20" as="geometry" />
        </mxCell>
        <mxCell id="VyQ7sG4PmXJxbMCQKmuq-28" value="Done" style="rounded=1;whiteSpace=wrap;html=1;" parent="173Z28My_MUUdqq_JIqF-1" vertex="1">
          <mxGeometry x="190" y="150" width="64" height="20" as="geometry" />
        </mxCell>
        <mxCell id="VyQ7sG4PmXJxbMCQKmuq-29" value="Done" style="rounded=1;whiteSpace=wrap;html=1;" parent="173Z28My_MUUdqq_JIqF-1" vertex="1">
          <mxGeometry x="190" y="180" width="64" height="20" as="geometry" />
        </mxCell>
        <mxCell id="173Z28My_MUUdqq_JIqF-3" value="" style="group" parent="dU9eeJgTwGEJfsgNo73O-1" vertex="1" connectable="0">
          <mxGeometry x="40" y="370" width="210" height="210" as="geometry" />
        </mxCell>
        <mxCell id="VyQ7sG4PmXJxbMCQKmuq-11" value="" style="whiteSpace=wrap;html=1;aspect=fixed;" parent="173Z28My_MUUdqq_JIqF-3" vertex="1">
          <mxGeometry width="210" height="210" as="geometry" />
        </mxCell>
        <mxCell id="VyQ7sG4PmXJxbMCQKmuq-12" value="Create ticket" style="text;html=1;strokeColor=none;fillColor=none;align=center;verticalAlign=middle;whiteSpace=wrap;rounded=0;" parent="173Z28My_MUUdqq_JIqF-3" vertex="1">
          <mxGeometry x="40" y="10" width="80" height="40" as="geometry" />
        </mxCell>
        <mxCell id="VyQ7sG4PmXJxbMCQKmuq-13" value="Name" style="rounded=1;whiteSpace=wrap;html=1;" parent="173Z28My_MUUdqq_JIqF-3" vertex="1">
          <mxGeometry x="40" y="60" width="90" height="20" as="geometry" />
        </mxCell>
        <mxCell id="VyQ7sG4PmXJxbMCQKmuq-14" value="Title" style="rounded=1;whiteSpace=wrap;html=1;" parent="173Z28My_MUUdqq_JIqF-3" vertex="1">
          <mxGeometry x="40" y="85" width="90" height="20" as="geometry" />
        </mxCell>
        <mxCell id="VyQ7sG4PmXJxbMCQKmuq-15" value="Description" style="rounded=1;whiteSpace=wrap;html=1;" parent="173Z28My_MUUdqq_JIqF-3" vertex="1">
          <mxGeometry x="40" y="110" width="90" height="20" as="geometry" />
        </mxCell>
        <mxCell id="VyQ7sG4PmXJxbMCQKmuq-16" value="Time" style="rounded=1;whiteSpace=wrap;html=1;" parent="173Z28My_MUUdqq_JIqF-3" vertex="1">
          <mxGeometry x="40" y="140" width="90" height="20" as="geometry" />
        </mxCell>
        <mxCell id="VyQ7sG4PmXJxbMCQKmuq-18" value="Add" style="rounded=1;whiteSpace=wrap;html=1;" parent="173Z28My_MUUdqq_JIqF-3" vertex="1">
          <mxGeometry x="25" y="170" width="120" height="30" as="geometry" />
        </mxCell>
        <mxCell id="173Z28My_MUUdqq_JIqF-4" value="" style="group" parent="dU9eeJgTwGEJfsgNo73O-1" vertex="1" connectable="0">
          <mxGeometry x="-210" y="380" width="110" height="110" as="geometry" />
        </mxCell>
        <mxCell id="VyQ7sG4PmXJxbMCQKmuq-1" value="&lt;div&gt;&lt;span&gt;log In&lt;/span&gt;&lt;/div&gt;&lt;div&gt;&lt;span&gt;&lt;br&gt;&lt;/span&gt;&lt;/div&gt;&lt;div&gt;&lt;span&gt;&lt;br&gt;&lt;/span&gt;&lt;/div&gt;&lt;div&gt;&lt;span&gt;&lt;br&gt;&lt;/span&gt;&lt;/div&gt;&lt;div&gt;&lt;span&gt;&lt;br&gt;&lt;/span&gt;&lt;/div&gt;&lt;div&gt;&lt;span&gt;&lt;br&gt;&lt;/span&gt;&lt;/div&gt;&lt;div&gt;&lt;span&gt;&amp;nbsp;&lt;/span&gt;&lt;/div&gt;" style="whiteSpace=wrap;html=1;aspect=fixed;align=center;" parent="173Z28My_MUUdqq_JIqF-4" vertex="1">
          <mxGeometry width="110" height="110" as="geometry" />
        </mxCell>
        <mxCell id="VyQ7sG4PmXJxbMCQKmuq-3" value="Trainee" style="rounded=1;whiteSpace=wrap;html=1;" parent="173Z28My_MUUdqq_JIqF-4" vertex="1">
          <mxGeometry x="10" y="45" width="90" height="20" as="geometry" />
        </mxCell>
        <mxCell id="VyQ7sG4PmXJxbMCQKmuq-4" value="Trainer" style="rounded=1;whiteSpace=wrap;html=1;" parent="173Z28My_MUUdqq_JIqF-4" vertex="1">
          <mxGeometry x="10" y="80" width="90" height="20" as="geometry" />
        </mxCell>
      </root>
    </mxGraphModel>
  </diagram>
  <diagram id="jeBajPWHzbbybwTLVlXc" name="EER">
    <mxGraphModel dx="2889" dy="2291" grid="1" gridSize="10" guides="1" tooltips="1" connect="1" arrows="1" fold="1" page="1" pageScale="1" pageWidth="827" pageHeight="1169" math="0" shadow="0">
      <root>
        <mxCell id="SnNdaZDQSKZy6v0XuxdD-0" />
        <mxCell id="SnNdaZDQSKZy6v0XuxdD-1" parent="SnNdaZDQSKZy6v0XuxdD-0" />
        <mxCell id="rofzS9Kc_Iwgo6cTuP5j-0" value="ticket" style="rounded=0;whiteSpace=wrap;html=1;strokeColor=#CC6600;shadow=0;" parent="SnNdaZDQSKZy6v0XuxdD-1" vertex="1">
          <mxGeometry x="-160" y="170" width="120" height="60" as="geometry" />
        </mxCell>
        <mxCell id="rofzS9Kc_Iwgo6cTuP5j-26" value="Trainee" style="rounded=0;whiteSpace=wrap;html=1;shadow=0;strokeColor=#4C0099;" parent="SnNdaZDQSKZy6v0XuxdD-1" vertex="1">
          <mxGeometry x="260" y="140" width="120" height="60" as="geometry" />
        </mxCell>
        <mxCell id="rofzS9Kc_Iwgo6cTuP5j-27" value="Trainer" style="rounded=0;whiteSpace=wrap;html=1;shadow=0;strokeColor=#000099;" parent="SnNdaZDQSKZy6v0XuxdD-1" vertex="1">
          <mxGeometry x="280" y="420" width="120" height="60" as="geometry" />
        </mxCell>
        <mxCell id="rofzS9Kc_Iwgo6cTuP5j-39" style="edgeStyle=none;rounded=0;orthogonalLoop=1;jettySize=auto;html=1;exitX=1;exitY=0.5;exitDx=0;exitDy=0;" parent="SnNdaZDQSKZy6v0XuxdD-1" source="rofzS9Kc_Iwgo6cTuP5j-29" target="rofzS9Kc_Iwgo6cTuP5j-0" edge="1">
          <mxGeometry relative="1" as="geometry" />
        </mxCell>
        <mxCell id="rofzS9Kc_Iwgo6cTuP5j-29" value="Title" style="ellipse;whiteSpace=wrap;html=1;shadow=0;strokeColor=#CC6600;" parent="SnNdaZDQSKZy6v0XuxdD-1" vertex="1">
          <mxGeometry x="-490" y="100" width="120" height="80" as="geometry" />
        </mxCell>
        <mxCell id="rofzS9Kc_Iwgo6cTuP5j-54" style="edgeStyle=none;rounded=0;orthogonalLoop=1;jettySize=auto;html=1;exitX=1;exitY=0;exitDx=0;exitDy=0;entryX=0;entryY=1;entryDx=0;entryDy=0;" parent="SnNdaZDQSKZy6v0XuxdD-1" source="rofzS9Kc_Iwgo6cTuP5j-30" target="rofzS9Kc_Iwgo6cTuP5j-0" edge="1">
          <mxGeometry relative="1" as="geometry" />
        </mxCell>
        <mxCell id="rofzS9Kc_Iwgo6cTuP5j-30" value="Description" style="ellipse;whiteSpace=wrap;html=1;shadow=0;strokeColor=#CC6600;" parent="SnNdaZDQSKZy6v0XuxdD-1" vertex="1">
          <mxGeometry x="-320" y="280" width="120" height="80" as="geometry" />
        </mxCell>
        <mxCell id="rofzS9Kc_Iwgo6cTuP5j-56" style="edgeStyle=none;rounded=0;orthogonalLoop=1;jettySize=auto;html=1;exitX=0.5;exitY=0;exitDx=0;exitDy=0;" parent="SnNdaZDQSKZy6v0XuxdD-1" source="rofzS9Kc_Iwgo6cTuP5j-31" target="rofzS9Kc_Iwgo6cTuP5j-0" edge="1">
          <mxGeometry relative="1" as="geometry" />
        </mxCell>
        <mxCell id="rofzS9Kc_Iwgo6cTuP5j-31" value="Time Stamp" style="ellipse;whiteSpace=wrap;html=1;shadow=0;strokeColor=#CC6600;" parent="SnNdaZDQSKZy6v0XuxdD-1" vertex="1">
          <mxGeometry x="-50" y="380" width="120" height="80" as="geometry" />
        </mxCell>
        <mxCell id="rofzS9Kc_Iwgo6cTuP5j-74" style="edgeStyle=none;rounded=0;orthogonalLoop=1;jettySize=auto;html=1;exitX=0.5;exitY=1;exitDx=0;exitDy=0;" parent="SnNdaZDQSKZy6v0XuxdD-1" source="rofzS9Kc_Iwgo6cTuP5j-32" target="rofzS9Kc_Iwgo6cTuP5j-0" edge="1">
          <mxGeometry relative="1" as="geometry" />
        </mxCell>
        <mxCell id="rofzS9Kc_Iwgo6cTuP5j-32" value="Ticket ID" style="ellipse;whiteSpace=wrap;html=1;shadow=0;strokeColor=#CC6600;fillColor=#FF8000;" parent="SnNdaZDQSKZy6v0XuxdD-1" vertex="1">
          <mxGeometry x="-80" y="10" width="120" height="80" as="geometry" />
        </mxCell>
        <mxCell id="rofzS9Kc_Iwgo6cTuP5j-55" style="edgeStyle=none;rounded=0;orthogonalLoop=1;jettySize=auto;html=1;exitX=0.5;exitY=0;exitDx=0;exitDy=0;entryX=0.25;entryY=1;entryDx=0;entryDy=0;" parent="SnNdaZDQSKZy6v0XuxdD-1" source="rofzS9Kc_Iwgo6cTuP5j-34" target="rofzS9Kc_Iwgo6cTuP5j-0" edge="1">
          <mxGeometry relative="1" as="geometry" />
        </mxCell>
        <mxCell id="rofzS9Kc_Iwgo6cTuP5j-34" value="Status" style="ellipse;whiteSpace=wrap;html=1;shadow=0;strokeColor=#CC6600;fillColor=#FFFFFF;" parent="SnNdaZDQSKZy6v0XuxdD-1" vertex="1">
          <mxGeometry x="-190" y="350" width="120" height="80" as="geometry" />
        </mxCell>
        <mxCell id="rofzS9Kc_Iwgo6cTuP5j-38" style="edgeStyle=none;rounded=0;orthogonalLoop=1;jettySize=auto;html=1;exitX=1;exitY=1;exitDx=0;exitDy=0;entryX=0;entryY=0;entryDx=0;entryDy=0;" parent="SnNdaZDQSKZy6v0XuxdD-1" source="rofzS9Kc_Iwgo6cTuP5j-35" target="rofzS9Kc_Iwgo6cTuP5j-0" edge="1">
          <mxGeometry relative="1" as="geometry" />
        </mxCell>
        <mxCell id="rofzS9Kc_Iwgo6cTuP5j-35" value="Ticket creator" style="ellipse;whiteSpace=wrap;html=1;shadow=0;strokeColor=#CC6600;fillColor=#FFFFFF;" parent="SnNdaZDQSKZy6v0XuxdD-1" vertex="1">
          <mxGeometry x="-350" y="50" width="120" height="80" as="geometry" />
        </mxCell>
        <mxCell id="rofzS9Kc_Iwgo6cTuP5j-64" style="edgeStyle=none;rounded=0;orthogonalLoop=1;jettySize=auto;html=1;exitX=0.5;exitY=1;exitDx=0;exitDy=0;entryX=0.5;entryY=0;entryDx=0;entryDy=0;" parent="SnNdaZDQSKZy6v0XuxdD-1" source="rofzS9Kc_Iwgo6cTuP5j-60" target="rofzS9Kc_Iwgo6cTuP5j-26" edge="1">
          <mxGeometry relative="1" as="geometry" />
        </mxCell>
        <mxCell id="rofzS9Kc_Iwgo6cTuP5j-60" value="Trainee ID" style="ellipse;whiteSpace=wrap;html=1;shadow=0;strokeColor=#4C0099;fillColor=#B266FF;" parent="SnNdaZDQSKZy6v0XuxdD-1" vertex="1">
          <mxGeometry x="220" y="-10" width="120" height="80" as="geometry" />
        </mxCell>
        <mxCell id="rofzS9Kc_Iwgo6cTuP5j-63" style="edgeStyle=none;rounded=0;orthogonalLoop=1;jettySize=auto;html=1;exitX=1;exitY=1;exitDx=0;exitDy=0;" parent="SnNdaZDQSKZy6v0XuxdD-1" source="rofzS9Kc_Iwgo6cTuP5j-61" target="rofzS9Kc_Iwgo6cTuP5j-26" edge="1">
          <mxGeometry relative="1" as="geometry" />
        </mxCell>
        <mxCell id="rofzS9Kc_Iwgo6cTuP5j-61" value="Name" style="ellipse;whiteSpace=wrap;html=1;shadow=0;strokeColor=#4C0099;fillColor=#FFFFFF;" parent="SnNdaZDQSKZy6v0XuxdD-1" vertex="1">
          <mxGeometry x="90" width="120" height="80" as="geometry" />
        </mxCell>
        <mxCell id="rofzS9Kc_Iwgo6cTuP5j-65" style="edgeStyle=none;rounded=0;orthogonalLoop=1;jettySize=auto;html=1;exitX=0.5;exitY=1;exitDx=0;exitDy=0;entryX=0.75;entryY=0;entryDx=0;entryDy=0;" parent="SnNdaZDQSKZy6v0XuxdD-1" source="rofzS9Kc_Iwgo6cTuP5j-62" target="rofzS9Kc_Iwgo6cTuP5j-26" edge="1">
          <mxGeometry relative="1" as="geometry" />
        </mxCell>
        <mxCell id="rofzS9Kc_Iwgo6cTuP5j-62" value="Cohort" style="ellipse;whiteSpace=wrap;html=1;shadow=0;strokeColor=#4C0099;fillColor=#FFFFFF;" parent="SnNdaZDQSKZy6v0XuxdD-1" vertex="1">
          <mxGeometry x="360" y="-10" width="120" height="80" as="geometry" />
        </mxCell>
        <mxCell id="xIA826OJSJ3OLDxQ7yS0-4" style="edgeStyle=none;rounded=0;orthogonalLoop=1;jettySize=auto;html=1;exitX=0.5;exitY=0;exitDx=0;exitDy=0;entryX=0;entryY=0.5;entryDx=0;entryDy=0;" parent="SnNdaZDQSKZy6v0XuxdD-1" source="rofzS9Kc_Iwgo6cTuP5j-66" target="rofzS9Kc_Iwgo6cTuP5j-27" edge="1">
          <mxGeometry relative="1" as="geometry" />
        </mxCell>
        <mxCell id="rofzS9Kc_Iwgo6cTuP5j-66" value="Name" style="ellipse;whiteSpace=wrap;html=1;shadow=0;strokeColor=#000099;fillColor=#FFFFFF;" parent="SnNdaZDQSKZy6v0XuxdD-1" vertex="1">
          <mxGeometry x="150" y="510" width="120" height="80" as="geometry" />
        </mxCell>
        <mxCell id="xIA826OJSJ3OLDxQ7yS0-5" style="edgeStyle=none;rounded=0;orthogonalLoop=1;jettySize=auto;html=1;exitX=0.5;exitY=0;exitDx=0;exitDy=0;entryX=0.5;entryY=1;entryDx=0;entryDy=0;" parent="SnNdaZDQSKZy6v0XuxdD-1" source="rofzS9Kc_Iwgo6cTuP5j-68" target="rofzS9Kc_Iwgo6cTuP5j-27" edge="1">
          <mxGeometry relative="1" as="geometry" />
        </mxCell>
        <mxCell id="rofzS9Kc_Iwgo6cTuP5j-68" value="Trainer ID " style="ellipse;whiteSpace=wrap;html=1;shadow=0;strokeColor=#000099;fillColor=#3333FF;" parent="SnNdaZDQSKZy6v0XuxdD-1" vertex="1">
          <mxGeometry x="294" y="510" width="120" height="80" as="geometry" />
        </mxCell>
        <mxCell id="xIA826OJSJ3OLDxQ7yS0-6" style="edgeStyle=none;rounded=0;orthogonalLoop=1;jettySize=auto;html=1;exitX=0.5;exitY=0;exitDx=0;exitDy=0;entryX=1;entryY=0.5;entryDx=0;entryDy=0;" parent="SnNdaZDQSKZy6v0XuxdD-1" source="rofzS9Kc_Iwgo6cTuP5j-70" target="rofzS9Kc_Iwgo6cTuP5j-27" edge="1">
          <mxGeometry relative="1" as="geometry" />
        </mxCell>
        <mxCell id="rofzS9Kc_Iwgo6cTuP5j-70" value="Cohort" style="ellipse;whiteSpace=wrap;html=1;shadow=0;strokeColor=#000099;fillColor=#FFFFFF;" parent="SnNdaZDQSKZy6v0XuxdD-1" vertex="1">
          <mxGeometry x="440" y="510" width="120" height="80" as="geometry" />
        </mxCell>
        <mxCell id="rofzS9Kc_Iwgo6cTuP5j-76" style="edgeStyle=none;rounded=0;orthogonalLoop=1;jettySize=auto;html=1;exitX=0.5;exitY=1;exitDx=0;exitDy=0;entryX=0.5;entryY=0;entryDx=0;entryDy=0;" parent="SnNdaZDQSKZy6v0XuxdD-1" source="rofzS9Kc_Iwgo6cTuP5j-75" target="rofzS9Kc_Iwgo6cTuP5j-0" edge="1">
          <mxGeometry relative="1" as="geometry" />
        </mxCell>
        <mxCell id="rofzS9Kc_Iwgo6cTuP5j-75" value="Solution" style="ellipse;whiteSpace=wrap;html=1;shadow=0;strokeColor=#CC6600;fillColor=#FFFFFF;" parent="SnNdaZDQSKZy6v0XuxdD-1" vertex="1">
          <mxGeometry x="-200" width="120" height="80" as="geometry" />
        </mxCell>
        <mxCell id="xIA826OJSJ3OLDxQ7yS0-0" style="edgeStyle=none;rounded=0;orthogonalLoop=1;jettySize=auto;html=1;exitX=1;exitY=0.5;exitDx=0;exitDy=0;entryX=0.001;entryY=0.849;entryDx=0;entryDy=0;entryPerimeter=0;" parent="SnNdaZDQSKZy6v0XuxdD-1" source="rofzS9Kc_Iwgo6cTuP5j-82" target="rofzS9Kc_Iwgo6cTuP5j-0" edge="1">
          <mxGeometry relative="1" as="geometry" />
        </mxCell>
        <mxCell id="rofzS9Kc_Iwgo6cTuP5j-82" value="Ticket solver " style="ellipse;whiteSpace=wrap;html=1;shadow=0;strokeColor=#CC6600;fillColor=#FFFFFF;" parent="SnNdaZDQSKZy6v0XuxdD-1" vertex="1">
          <mxGeometry x="-490" y="210" width="120" height="80" as="geometry" />
        </mxCell>
        <mxCell id="xIA826OJSJ3OLDxQ7yS0-9" style="edgeStyle=none;rounded=0;orthogonalLoop=1;jettySize=auto;html=1;exitX=1;exitY=0.5;exitDx=0;exitDy=0;entryX=0;entryY=0.5;entryDx=0;entryDy=0;" parent="SnNdaZDQSKZy6v0XuxdD-1" source="xIA826OJSJ3OLDxQ7yS0-7" target="xIA826OJSJ3OLDxQ7yS0-8" edge="1">
          <mxGeometry relative="1" as="geometry" />
        </mxCell>
        <mxCell id="xIA826OJSJ3OLDxQ7yS0-7" value="Cohort" style="rounded=0;whiteSpace=wrap;html=1;shadow=0;strokeColor=#CC0000;fillColor=#FFFFFF;" parent="SnNdaZDQSKZy6v0XuxdD-1" vertex="1">
          <mxGeometry x="260" y="280" width="120" height="60" as="geometry" />
        </mxCell>
        <mxCell id="xIA826OJSJ3OLDxQ7yS0-8" value="Cohort ID" style="ellipse;whiteSpace=wrap;html=1;shadow=0;strokeColor=#FF6666;fillColor=#FF6666;" parent="SnNdaZDQSKZy6v0XuxdD-1" vertex="1">
          <mxGeometry x="450" y="260" width="120" height="80" as="geometry" />
        </mxCell>
      </root>
    </mxGraphModel>
  </diagram>
  <diagram id="O-HLQJv3XxcFCvSA5VCY" name="ERR_MVP">
    <mxGraphModel dx="1375" dy="748" grid="1" gridSize="10" guides="1" tooltips="1" connect="1" arrows="1" fold="1" page="1" pageScale="1" pageWidth="827" pageHeight="1169" math="0" shadow="0">
      <root>
        <mxCell id="l51O5sRipuVlhbdJKC-l-0" />
        <mxCell id="l51O5sRipuVlhbdJKC-l-1" parent="l51O5sRipuVlhbdJKC-l-0" />
        <mxCell id="EN-EtEEHWE2Gg6d9veh5-0" value="ticket" style="rounded=0;whiteSpace=wrap;html=1;strokeColor=#CC6600;shadow=0;" parent="l51O5sRipuVlhbdJKC-l-1" vertex="1">
          <mxGeometry x="320" y="300" width="120" height="60" as="geometry" />
        </mxCell>
        <mxCell id="EN-EtEEHWE2Gg6d9veh5-1" style="edgeStyle=none;rounded=0;orthogonalLoop=1;jettySize=auto;html=1;exitX=1;exitY=0.5;exitDx=0;exitDy=0;" parent="l51O5sRipuVlhbdJKC-l-1" source="EN-EtEEHWE2Gg6d9veh5-2" target="EN-EtEEHWE2Gg6d9veh5-0" edge="1">
          <mxGeometry relative="1" as="geometry" />
        </mxCell>
        <mxCell id="EN-EtEEHWE2Gg6d9veh5-2" value="Title" style="ellipse;whiteSpace=wrap;html=1;shadow=0;strokeColor=#CC6600;" parent="l51O5sRipuVlhbdJKC-l-1" vertex="1">
          <mxGeometry x="150" y="290" width="120" height="80" as="geometry" />
        </mxCell>
        <mxCell id="EN-EtEEHWE2Gg6d9veh5-3" style="edgeStyle=none;rounded=0;orthogonalLoop=1;jettySize=auto;html=1;exitX=1;exitY=0;exitDx=0;exitDy=0;entryX=0;entryY=1;entryDx=0;entryDy=0;" parent="l51O5sRipuVlhbdJKC-l-1" source="EN-EtEEHWE2Gg6d9veh5-4" target="EN-EtEEHWE2Gg6d9veh5-0" edge="1">
          <mxGeometry relative="1" as="geometry" />
        </mxCell>
        <mxCell id="EN-EtEEHWE2Gg6d9veh5-4" value="Description" style="ellipse;whiteSpace=wrap;html=1;shadow=0;strokeColor=#CC6600;" parent="l51O5sRipuVlhbdJKC-l-1" vertex="1">
          <mxGeometry x="160" y="410" width="120" height="80" as="geometry" />
        </mxCell>
        <mxCell id="EN-EtEEHWE2Gg6d9veh5-5" style="edgeStyle=none;rounded=0;orthogonalLoop=1;jettySize=auto;html=1;exitX=0.5;exitY=0;exitDx=0;exitDy=0;" parent="l51O5sRipuVlhbdJKC-l-1" source="EN-EtEEHWE2Gg6d9veh5-6" target="EN-EtEEHWE2Gg6d9veh5-0" edge="1">
          <mxGeometry relative="1" as="geometry" />
        </mxCell>
        <mxCell id="EN-EtEEHWE2Gg6d9veh5-6" value="Time Stamp" style="ellipse;whiteSpace=wrap;html=1;shadow=0;strokeColor=#CC6600;" parent="l51O5sRipuVlhbdJKC-l-1" vertex="1">
          <mxGeometry x="450" y="430" width="120" height="80" as="geometry" />
        </mxCell>
        <mxCell id="EN-EtEEHWE2Gg6d9veh5-7" style="edgeStyle=none;rounded=0;orthogonalLoop=1;jettySize=auto;html=1;exitX=0.5;exitY=1;exitDx=0;exitDy=0;" parent="l51O5sRipuVlhbdJKC-l-1" source="EN-EtEEHWE2Gg6d9veh5-8" target="EN-EtEEHWE2Gg6d9veh5-0" edge="1">
          <mxGeometry relative="1" as="geometry" />
        </mxCell>
        <mxCell id="EN-EtEEHWE2Gg6d9veh5-8" value="Ticket ID" style="ellipse;whiteSpace=wrap;html=1;shadow=0;strokeColor=#CC6600;fillColor=#FF8000;" parent="l51O5sRipuVlhbdJKC-l-1" vertex="1">
          <mxGeometry x="330" y="160" width="120" height="80" as="geometry" />
        </mxCell>
        <mxCell id="EN-EtEEHWE2Gg6d9veh5-9" style="edgeStyle=none;rounded=0;orthogonalLoop=1;jettySize=auto;html=1;exitX=0.5;exitY=0;exitDx=0;exitDy=0;entryX=0.25;entryY=1;entryDx=0;entryDy=0;" parent="l51O5sRipuVlhbdJKC-l-1" source="EN-EtEEHWE2Gg6d9veh5-10" target="EN-EtEEHWE2Gg6d9veh5-0" edge="1">
          <mxGeometry relative="1" as="geometry" />
        </mxCell>
        <mxCell id="EN-EtEEHWE2Gg6d9veh5-10" value="Status" style="ellipse;whiteSpace=wrap;html=1;shadow=0;strokeColor=#CC6600;fillColor=#FFFFFF;" parent="l51O5sRipuVlhbdJKC-l-1" vertex="1">
          <mxGeometry x="294" y="480" width="120" height="80" as="geometry" />
        </mxCell>
        <mxCell id="EN-EtEEHWE2Gg6d9veh5-11" style="edgeStyle=none;rounded=0;orthogonalLoop=1;jettySize=auto;html=1;exitX=1;exitY=1;exitDx=0;exitDy=0;entryX=0;entryY=0;entryDx=0;entryDy=0;" parent="l51O5sRipuVlhbdJKC-l-1" source="EN-EtEEHWE2Gg6d9veh5-12" target="EN-EtEEHWE2Gg6d9veh5-0" edge="1">
          <mxGeometry relative="1" as="geometry" />
        </mxCell>
        <mxCell id="EN-EtEEHWE2Gg6d9veh5-12" value="Ticket creator" style="ellipse;whiteSpace=wrap;html=1;shadow=0;strokeColor=#CC6600;fillColor=#FFFFFF;" parent="l51O5sRipuVlhbdJKC-l-1" vertex="1">
          <mxGeometry x="150" y="190" width="120" height="80" as="geometry" />
        </mxCell>
        <mxCell id="fyoH6zOc0S4rDr1qR9_3-0" value="Ticket" style="shape=table;startSize=30;container=1;collapsible=1;childLayout=tableLayout;fixedRows=1;rowLines=0;fontStyle=1;align=center;resizeLast=1;" vertex="1" parent="l51O5sRipuVlhbdJKC-l-1">
          <mxGeometry x="100" y="630" width="260.0000000000001" height="220" as="geometry" />
        </mxCell>
        <mxCell id="fyoH6zOc0S4rDr1qR9_3-1" value="" style="shape=partialRectangle;collapsible=0;dropTarget=0;pointerEvents=0;fillColor=none;top=0;left=0;bottom=1;right=0;points=[[0,0.5],[1,0.5]];portConstraint=eastwest;" vertex="1" parent="fyoH6zOc0S4rDr1qR9_3-0">
          <mxGeometry y="30" width="260.0000000000001" height="30" as="geometry" />
        </mxCell>
        <mxCell id="fyoH6zOc0S4rDr1qR9_3-2" value="PK" style="shape=partialRectangle;connectable=0;fillColor=none;top=0;left=0;bottom=0;right=0;fontStyle=1;overflow=hidden;" vertex="1" parent="fyoH6zOc0S4rDr1qR9_3-1">
          <mxGeometry width="30" height="30" as="geometry" />
        </mxCell>
        <mxCell id="fyoH6zOc0S4rDr1qR9_3-3" value="ticketId int NOT NULL" style="shape=partialRectangle;connectable=0;fillColor=none;top=0;left=0;bottom=0;right=0;align=left;spacingLeft=6;fontStyle=5;overflow=hidden;" vertex="1" parent="fyoH6zOc0S4rDr1qR9_3-1">
          <mxGeometry x="30" width="230.0000000000001" height="30" as="geometry" />
        </mxCell>
        <mxCell id="fyoH6zOc0S4rDr1qR9_3-4" value="" style="shape=partialRectangle;collapsible=0;dropTarget=0;pointerEvents=0;fillColor=none;top=0;left=0;bottom=0;right=0;points=[[0,0.5],[1,0.5]];portConstraint=eastwest;" vertex="1" parent="fyoH6zOc0S4rDr1qR9_3-0">
          <mxGeometry y="60" width="260.0000000000001" height="30" as="geometry" />
        </mxCell>
        <mxCell id="fyoH6zOc0S4rDr1qR9_3-5" value="" style="shape=partialRectangle;connectable=0;fillColor=none;top=0;left=0;bottom=0;right=0;editable=1;overflow=hidden;" vertex="1" parent="fyoH6zOc0S4rDr1qR9_3-4">
          <mxGeometry width="30" height="30" as="geometry" />
        </mxCell>
        <mxCell id="fyoH6zOc0S4rDr1qR9_3-6" value="title char(50) NOT NULL" style="shape=partialRectangle;connectable=0;fillColor=none;top=0;left=0;bottom=0;right=0;align=left;spacingLeft=6;overflow=hidden;" vertex="1" parent="fyoH6zOc0S4rDr1qR9_3-4">
          <mxGeometry x="30" width="230.0000000000001" height="30" as="geometry" />
        </mxCell>
        <mxCell id="fyoH6zOc0S4rDr1qR9_3-7" value="" style="shape=partialRectangle;collapsible=0;dropTarget=0;pointerEvents=0;fillColor=none;top=0;left=0;bottom=0;right=0;points=[[0,0.5],[1,0.5]];portConstraint=eastwest;" vertex="1" parent="fyoH6zOc0S4rDr1qR9_3-0">
          <mxGeometry y="90" width="260.0000000000001" height="30" as="geometry" />
        </mxCell>
        <mxCell id="fyoH6zOc0S4rDr1qR9_3-8" value="" style="shape=partialRectangle;connectable=0;fillColor=none;top=0;left=0;bottom=0;right=0;editable=1;overflow=hidden;" vertex="1" parent="fyoH6zOc0S4rDr1qR9_3-7">
          <mxGeometry width="30" height="30" as="geometry" />
        </mxCell>
        <mxCell id="fyoH6zOc0S4rDr1qR9_3-9" value="description char(255) NOT NULL" style="shape=partialRectangle;connectable=0;fillColor=none;top=0;left=0;bottom=0;right=0;align=left;spacingLeft=6;overflow=hidden;" vertex="1" parent="fyoH6zOc0S4rDr1qR9_3-7">
          <mxGeometry x="30" width="230.0000000000001" height="30" as="geometry" />
        </mxCell>
        <mxCell id="fyoH6zOc0S4rDr1qR9_3-10" value="" style="shape=partialRectangle;collapsible=0;dropTarget=0;pointerEvents=0;fillColor=none;top=0;left=0;bottom=0;right=0;points=[[0,0.5],[1,0.5]];portConstraint=eastwest;" vertex="1" parent="fyoH6zOc0S4rDr1qR9_3-0">
          <mxGeometry y="120" width="260.0000000000001" height="30" as="geometry" />
        </mxCell>
        <mxCell id="fyoH6zOc0S4rDr1qR9_3-11" value="" style="shape=partialRectangle;connectable=0;fillColor=none;top=0;left=0;bottom=0;right=0;editable=1;overflow=hidden;" vertex="1" parent="fyoH6zOc0S4rDr1qR9_3-10">
          <mxGeometry width="30" height="30" as="geometry" />
        </mxCell>
        <mxCell id="fyoH6zOc0S4rDr1qR9_3-12" value="timestamp smalldatetime NOT NULL" style="shape=partialRectangle;connectable=0;fillColor=none;top=0;left=0;bottom=0;right=0;align=left;spacingLeft=6;overflow=hidden;" vertex="1" parent="fyoH6zOc0S4rDr1qR9_3-10">
          <mxGeometry x="30" width="230.0000000000001" height="30" as="geometry" />
        </mxCell>
        <mxCell id="fyoH6zOc0S4rDr1qR9_3-13" value="" style="shape=partialRectangle;collapsible=0;dropTarget=0;pointerEvents=0;fillColor=none;top=0;left=0;bottom=0;right=0;points=[[0,0.5],[1,0.5]];portConstraint=eastwest;" vertex="1" parent="fyoH6zOc0S4rDr1qR9_3-0">
          <mxGeometry y="150" width="260.0000000000001" height="30" as="geometry" />
        </mxCell>
        <mxCell id="fyoH6zOc0S4rDr1qR9_3-14" value="" style="shape=partialRectangle;connectable=0;fillColor=none;top=0;left=0;bottom=0;right=0;editable=1;overflow=hidden;" vertex="1" parent="fyoH6zOc0S4rDr1qR9_3-13">
          <mxGeometry width="30" height="30" as="geometry" />
        </mxCell>
        <mxCell id="fyoH6zOc0S4rDr1qR9_3-15" value="trainee char(50) NOT NULL" style="shape=partialRectangle;connectable=0;fillColor=none;top=0;left=0;bottom=0;right=0;align=left;spacingLeft=6;overflow=hidden;" vertex="1" parent="fyoH6zOc0S4rDr1qR9_3-13">
          <mxGeometry x="30" width="230.0000000000001" height="30" as="geometry" />
        </mxCell>
        <mxCell id="fyoH6zOc0S4rDr1qR9_3-16" value="" style="shape=partialRectangle;collapsible=0;dropTarget=0;pointerEvents=0;fillColor=none;top=0;left=0;bottom=0;right=0;points=[[0,0.5],[1,0.5]];portConstraint=eastwest;" vertex="1" parent="fyoH6zOc0S4rDr1qR9_3-0">
          <mxGeometry y="180" width="260.0000000000001" height="30" as="geometry" />
        </mxCell>
        <mxCell id="fyoH6zOc0S4rDr1qR9_3-17" value="" style="shape=partialRectangle;connectable=0;fillColor=none;top=0;left=0;bottom=0;right=0;editable=1;overflow=hidden;" vertex="1" parent="fyoH6zOc0S4rDr1qR9_3-16">
          <mxGeometry width="30" height="30" as="geometry" />
        </mxCell>
        <mxCell id="fyoH6zOc0S4rDr1qR9_3-18" value="status boolean NOT NULL" style="shape=partialRectangle;connectable=0;fillColor=none;top=0;left=0;bottom=0;right=0;align=left;spacingLeft=6;overflow=hidden;" vertex="1" parent="fyoH6zOc0S4rDr1qR9_3-16">
          <mxGeometry x="30" width="230.0000000000001" height="30" as="geometry" />
        </mxCell>
        <mxCell id="fyoH6zOc0S4rDr1qR9_3-19" value="Ticket" style="swimlane;fontStyle=1;align=center;verticalAlign=top;childLayout=stackLayout;horizontal=1;startSize=26;horizontalStack=0;resizeParent=1;resizeParentMax=0;resizeLast=0;collapsible=1;marginBottom=0;" vertex="1" parent="l51O5sRipuVlhbdJKC-l-1">
          <mxGeometry x="450" y="585" width="256" height="320" as="geometry" />
        </mxCell>
        <mxCell id="fyoH6zOc0S4rDr1qR9_3-20" value="+ticketId: int" style="text;strokeColor=none;fillColor=none;align=left;verticalAlign=top;spacingLeft=4;spacingRight=4;overflow=hidden;rotatable=0;points=[[0,0.5],[1,0.5]];portConstraint=eastwest;" vertex="1" parent="fyoH6zOc0S4rDr1qR9_3-19">
          <mxGeometry y="26" width="256" height="26" as="geometry" />
        </mxCell>
        <mxCell id="fyoH6zOc0S4rDr1qR9_3-23" value="+title: char" style="text;strokeColor=none;fillColor=none;align=left;verticalAlign=top;spacingLeft=4;spacingRight=4;overflow=hidden;rotatable=0;points=[[0,0.5],[1,0.5]];portConstraint=eastwest;" vertex="1" parent="fyoH6zOc0S4rDr1qR9_3-19">
          <mxGeometry y="52" width="256" height="26" as="geometry" />
        </mxCell>
        <mxCell id="fyoH6zOc0S4rDr1qR9_3-24" value="+description: char" style="text;strokeColor=none;fillColor=none;align=left;verticalAlign=top;spacingLeft=4;spacingRight=4;overflow=hidden;rotatable=0;points=[[0,0.5],[1,0.5]];portConstraint=eastwest;" vertex="1" parent="fyoH6zOc0S4rDr1qR9_3-19">
          <mxGeometry y="78" width="256" height="26" as="geometry" />
        </mxCell>
        <mxCell id="fyoH6zOc0S4rDr1qR9_3-25" value="+timestamp: smalldatetime" style="text;strokeColor=none;fillColor=none;align=left;verticalAlign=top;spacingLeft=4;spacingRight=4;overflow=hidden;rotatable=0;points=[[0,0.5],[1,0.5]];portConstraint=eastwest;" vertex="1" parent="fyoH6zOc0S4rDr1qR9_3-19">
          <mxGeometry y="104" width="256" height="26" as="geometry" />
        </mxCell>
        <mxCell id="fyoH6zOc0S4rDr1qR9_3-26" value="+trainee: char" style="text;strokeColor=none;fillColor=none;align=left;verticalAlign=top;spacingLeft=4;spacingRight=4;overflow=hidden;rotatable=0;points=[[0,0.5],[1,0.5]];portConstraint=eastwest;" vertex="1" parent="fyoH6zOc0S4rDr1qR9_3-19">
          <mxGeometry y="130" width="256" height="26" as="geometry" />
        </mxCell>
        <mxCell id="fyoH6zOc0S4rDr1qR9_3-27" value="+status: boolean" style="text;strokeColor=none;fillColor=none;align=left;verticalAlign=top;spacingLeft=4;spacingRight=4;overflow=hidden;rotatable=0;points=[[0,0.5],[1,0.5]];portConstraint=eastwest;" vertex="1" parent="fyoH6zOc0S4rDr1qR9_3-19">
          <mxGeometry y="156" width="256" height="26" as="geometry" />
        </mxCell>
        <mxCell id="fyoH6zOc0S4rDr1qR9_3-21" value="" style="line;strokeWidth=1;fillColor=none;align=left;verticalAlign=middle;spacingTop=-1;spacingLeft=3;spacingRight=3;rotatable=0;labelPosition=right;points=[];portConstraint=eastwest;" vertex="1" parent="fyoH6zOc0S4rDr1qR9_3-19">
          <mxGeometry y="182" width="256" height="8" as="geometry" />
        </mxCell>
        <mxCell id="fyoH6zOc0S4rDr1qR9_3-22" value="+ addTicket(Ticket)" style="text;strokeColor=none;fillColor=none;align=left;verticalAlign=top;spacingLeft=4;spacingRight=4;overflow=hidden;rotatable=0;points=[[0,0.5],[1,0.5]];portConstraint=eastwest;" vertex="1" parent="fyoH6zOc0S4rDr1qR9_3-19">
          <mxGeometry y="190" width="256" height="26" as="geometry" />
        </mxCell>
        <mxCell id="fyoH6zOc0S4rDr1qR9_3-28" value="+ getDate(): smalldatetime" style="text;strokeColor=none;fillColor=none;align=left;verticalAlign=top;spacingLeft=4;spacingRight=4;overflow=hidden;rotatable=0;points=[[0,0.5],[1,0.5]];portConstraint=eastwest;" vertex="1" parent="fyoH6zOc0S4rDr1qR9_3-19">
          <mxGeometry y="216" width="256" height="26" as="geometry" />
        </mxCell>
        <mxCell id="fyoH6zOc0S4rDr1qR9_3-29" value="+ deleteTicket(int)" style="text;strokeColor=none;fillColor=none;align=left;verticalAlign=top;spacingLeft=4;spacingRight=4;overflow=hidden;rotatable=0;points=[[0,0.5],[1,0.5]];portConstraint=eastwest;" vertex="1" parent="fyoH6zOc0S4rDr1qR9_3-19">
          <mxGeometry y="242" width="256" height="26" as="geometry" />
        </mxCell>
        <mxCell id="fyoH6zOc0S4rDr1qR9_3-30" value="+ editTicket(int)" style="text;strokeColor=none;fillColor=none;align=left;verticalAlign=top;spacingLeft=4;spacingRight=4;overflow=hidden;rotatable=0;points=[[0,0.5],[1,0.5]];portConstraint=eastwest;" vertex="1" parent="fyoH6zOc0S4rDr1qR9_3-19">
          <mxGeometry y="268" width="256" height="26" as="geometry" />
        </mxCell>
        <mxCell id="fyoH6zOc0S4rDr1qR9_3-31" value="+ updateStatus()" style="text;strokeColor=none;fillColor=none;align=left;verticalAlign=top;spacingLeft=4;spacingRight=4;overflow=hidden;rotatable=0;points=[[0,0.5],[1,0.5]];portConstraint=eastwest;" vertex="1" parent="fyoH6zOc0S4rDr1qR9_3-19">
          <mxGeometry y="294" width="256" height="26" as="geometry" />
        </mxCell>
      </root>
    </mxGraphModel>
  </diagram>
</mxfile>
